Patient4_TMGait_0pt6_02_left_45_EMG.mot
version=1
nRows=16
nColumns=33
inDegrees=no
endheader
time	1LAddLong	2LGlutMax	3LGlutMed	4LIliopsoas	5LSemiMemb	6LBicFemLong	7LRecFem	8LVastMed	9LVastLat	10LGasMed	11LTibAnt	12lTibPost	13LPeroneusLong	14LSol	15LExtDigLong	16LFlexDigLong	17RAddLong	18RGlutMax	19RGlutMed	20RIliopsoas	21RSemiMemb	22RBicFemLong	23RRecFem	24RVastMed	25RVastLat	26RGasMed	27RTibAnt	28RTibPost	29RPeroneusLong	30RSol	31RExtDigLong	32RFlexDigLong
54.91	-0.002136	0.62576	0.00885	0.01709	-0.025787	-0.024872	-0.049133	0.007019	0.26047	-0.039215	0.04837	0.004272	-0.054932	-0.12665	-0.084686	-0.008392	-0.055084	-0.33707	0.58716	0.24567	0.33264	0.15167	0.26382	0.004578	-0.17944	-0.004883	0.19714	0.006714	-0.59586	0.050507	0.002747	-0.012207
54.911	-0.006866	0.71884	-0.024872	0.025024	-0.029297	-0.031891	-0.040131	0.006104	0.25085	-0.063477	0.14069	0.004578	-0.015259	-0.16037	0.10513	0.000305	-0.033875	-0.31708	0.052643	0.53513	0.47485	0.031586	0.51666	0.048065	-0.29144	-0.009003	0.31525	-0.001984	-0.13229	-0.030823	-0.002899	-0.012665
54.912	-0.012665	0.76523	0.006561	0.009766	-0.040436	-0.018158	-0.075531	0.008087	0.24674	-0.089569	0.12772	0.002289	0.049744	-0.13916	0.35797	0.013885	-0.023956	-0.33188	-0.25848	0.53024	0.31891	-0.15961	0.41412	0.076447	-0.27863	-0.020905	0.12589	-0.002289	0.62622	-0.11292	0.000305	-0.011902
54.913	0.004425	0.86685	0.045929	0.011749	-0.019226	-0.005035	-0.090942	0.005951	0.24109	-0.08728	-0.33463	0.010529	0.077057	0.04837	0.45959	0.02182	-0.015869	-0.39276	-0.42419	0.28259	0.1799	-0.11231	0.074005	0.028534	0.079498	-0.026398	0.12558	0.001373	0.61371	-0.18478	0.00061	-0.003052
54.914	0.004578	0.98587	0.00885	0.041962	-0.011902	0.001221	-0.0914	0.003662	0.25009	-0.042114	-0.1181	0.004425	0.01236	0.12314	0.30395	0.009308	-0.036621	-0.39108	-0.47012	0.14954	0.12344	-0.074463	-0.43503	0.15228	0.59921	-0.02121	0.31082	-0.003052	0.072632	-0.29007	-0.001221	-0.002899
54.915	0.012207	1.1302	0.011444	0.041199	-0.000153	-0.009918	-0.080719	0.005646	0.24689	0.011292	-0.006104	0.005188	-0.012054	0.092316	0.224	0.01297	-0.017242	-0.30045	-0.39307	0.038147	0.072021	-0.044861	-0.50705	0.11627	0.60806	-0.015259	0.13626	0.001678	0.3894	-0.23682	0.002899	-0.001526
54.916	0.020905	1.2361	-0.021667	0.003967	-0.002136	-0.006256	-0.064392	0.009918	0.24185	-0.012817	0.04837	0.005646	0.041351	0.028687	0.088806	0	-0.005798	-0.32944	-0.49332	-0.040436	0.02594	-0.081329	-0.43381	-0.15595	0.46127	-0.011444	0.30426	-0.00351	0.47028	-0.19653	-0.00061	-0.007324
54.917	0.019226	1.2613	-0.007782	0.001373	-0.001373	-0.006866	-0.050354	0.010071	0.24078	-0.062714	0.008545	0.004883	0.039978	-0.03952	-0.1442	0.010071	0.012512	-0.32013	-0.036621	-0.042572	-0.007935	-0.088501	-0.23956	-0.27481	0.34012	-0.013275	0.44022	-0.00412	-0.20309	-0.070038	0.001068	-0.000153
54.918	0.020599	1.4044	0.001831	0.007629	-0.007935	-0.016174	-0.066071	0.006409	0.23102	-0.048218	0.11841	0.007477	0.040894	-0.1683	-0.35294	0.002289	0.004578	-0.30472	0.29678	-0.092926	0.000153	-0.075684	-0.080872	-0.044098	0.50095	-0.027466	0.009918	-0.014343	0.24536	-0.021057	-0.002441	-0.006561
54.919	0.007172	1.3979	-0.003357	-0.011597	0.001068	-0.000916	-0.054779	0.005188	0.22018	-0.043945	0.11353	0.007782	0.048676	-0.20844	-0.38483	-0.001678	-0.020752	-0.31815	0.012665	-0.19547	-0.014038	-0.041046	0.31479	0.020294	0.007782	-0.021362	-0.10025	-0.007782	-0.83435	-0.036926	-0.006561	-0.010529
54.92	0.005188	1.2573	-0.006561	-0.007935	0.006256	0.007477	-0.034943	0.00351	0.21957	-0.022888	0.061951	0.007629	-0.017548	0.022888	-0.046692	0.015411	-0.011139	-0.38711	-0.053406	-0.22064	-0.020142	-0.01236	-0.30563	-0.10696	-0.49713	-0.012054	-0.094299	-0.007935	-0.33417	0.044098	-0.002136	-0.002747
54.921	0.001373	1.1678	-0.021057	0.012512	0.007324	0.018616	-0.046387	0.010071	0.20706	-0.033569	-0.065002	0.002594	-0.036163	0	-0.08606	0.012817	0.005646	-0.32379	-0.17227	-0.1828	-0.032654	-0.007477	-0.49713	-0.041199	-0.19836	0.002594	-0.064392	-0.002289	0.11978	-0.1062	-0.000305	0.004578
54.922	-0.005188	1.0106	-0.010376	-0.003052	0.010529	0.030518	-0.052032	-0.000458	0.19714	-0.054474	-0.23178	0.00061	0.050201	-0.20416	-0.14694	0.006714	0.010071	-0.32211	-0.32227	-0.078125	-0.031433	-0.03479	-0.27557	0.19165	0.55664	-0.003052	0.12039	-0.002747	-0.39673	0.022125	0.001526	-0.000916
54.923	-0.006714	0.86945	-0.018311	-0.003052	-0.018921	0.023041	-0.044556	0.003815	0.18982	-0.028687	-0.1712	0.000458	0.093384	-0.19821	-0.072632	0.014343	0.021057	-0.24399	0.26459	0.13641	-0.030212	-0.053253	-0.046844	0.15823	0.37384	-0.003052	-0.12009	-0.007019	-0.37415	0.010681	-0.001373	-0.005341
54.924	-0.00412	0.76523	-0.026245	0.007324	-0.039063	-0.019836	-0.046844	0.001221	0.18127	0.017548	-0.001373	-0.00351	0.1091	-0.067444	0.066986	0.008087	0.040894	-0.24521	0.61935	0.22278	-0.001221	-0.053253	0.10559	-0.002747	0.10483	0.001221	-0.64407	-0.009766	-0.13855	-0.060272	0.003967	-0.004883
54.925	0.003204	0.61478	-0.012512	0.000305	-0.028534	-0.023499	-0.062561	0.002747	0.18845	0.049133	0.039215	0.002747	0.077362	-0.040894	0.068359	-0.007019	0.027313	-0.19943	-0.32181	0.089874	0.023956	-0.050507	-0.079956	-0.10117	0.002441	-0.004272	-0.9932	-0.005493	1.1412	0.018005	0.001526	-0.005188
